<?xml version="1.0" encoding="UTF-8" standalone="no"?>
<!-- Created with Inkscape (http://www.inkscape.org/) -->
<svg
   xmlns:dc="http://purl.org/dc/elements/1.1/"
   xmlns:cc="http://creativecommons.org/ns#"
   xmlns:rdf="http://www.w3.org/1999/02/22-rdf-syntax-ns#"
   xmlns:svg="http://www.w3.org/2000/svg"
   xmlns="http://www.w3.org/2000/svg"
   xmlns:sodipodi="http://sodipodi.sourceforge.net/DTD/sodipodi-0.dtd"
   xmlns:inkscape="http://www.inkscape.org/namespaces/inkscape"
   width="500"
   height="400"
   id="svg2"
   sodipodi:version="0.32"
   inkscape:version="0.46"
   sodipodi:docbase="/home/julio/Documentos/Imágenes"
   sodipodi:docname="logovaslibre.svg"
   inkscape:output_extension="org.inkscape.output.svg.inkscape"
   version="1.0">
  <defs
     id="defs4">
    <inkscape:perspective
       sodipodi:type="inkscape:persp3d"
       inkscape:vp_x="0 : 382.5 : 1"
       inkscape:vp_y="0 : 1000 : 0"
       inkscape:vp_z="990 : 382.5 : 1"
       inkscape:persp3d-origin="495 : 255 : 1"
       id="perspective15" />
  </defs>
  <sodipodi:namedview
     id="base"
     pagecolor="#ffffff"
     bordercolor="#666666"
     borderopacity="1.0"
     inkscape:pageopacity="0.0"
     inkscape:pageshadow="2"
     inkscape:zoom="0.34431016"
     inkscape:cx="1366.8954"
     inkscape:cy="-210.03905"
     inkscape:document-units="px"
     inkscape:current-layer="layer1"
     inkscape:window-width="1400"
     inkscape:window-height="959"
     inkscape:window-x="0"
     inkscape:window-y="27"
     showguides="true"
     inkscape:guide-bbox="true"
     showgrid="false" />
  <metadata
     id="metadata7">
    <rdf:RDF>
      <cc:Work
         rdf:about="">
        <dc:format>image/svg+xml</dc:format>
        <dc:type
           rdf:resource="http://purl.org/dc/dcmitype/StillImage" />
      </cc:Work>
    </rdf:RDF>
  </metadata>
  <g
     inkscape:label="Capa 1"
     inkscape:groupmode="layer"
     id="layer1"
     style="display:inline">
    <path
       style="fill:#000000;fill-opacity:1;fill-rule:evenodd;stroke:none;stroke-width:1px;stroke-linecap:butt;stroke-linejoin:miter;stroke-opacity:1"
       d="M 507.13011,913.14006 C 507.13011,913.10721 507.13011,913.07437 507.13011,913.14006 z"
       id="path9408" />
    <g
       id="g2316"
       inkscape:export-filename="/home/julio/logo.png"
       inkscape:export-xdpi="150"
       inkscape:export-ydpi="150"
       transform="translate(-392.08834,-273.00966)">
      <path
         d="M 492.10659,604.50112 L 555.73426,520.13957 L 517.00437,514.86692 L 493.95088,564.07782 L 492.10659,524.8263 L 449.68814,527.7555 L 461.67596,595.12762 L 492.10659,604.50112 M 571.53301,587.84792 C 585.45496,598.64642 599.59621,600.87462 619.10887,600.87462 C 643.11604,600.87462 667.4521,589.90472 667.4521,571.13592 C 667.4521,536.42629 617.79342,546.882 617.79342,541.48274 C 617.79342,532.74105 636.20989,536.68342 646.73357,539.85441 L 646.73357,524.68497 C 635.2233,525.45634 580.19313,524.42793 583.26253,545.25366 C 585.34535,558.88042 630.50955,555.45232 630.50955,569.25042 C 630.50955,578.16352 598.28072,575.16382 587.42817,564.70812 L 571.53301,587.84792 M 673.11648,529.99854 L 675.7474,600.44622 L 736.25865,598.38932 L 736.25865,577.30642 L 705.3453,578.33492 L 711.92261,527.42748 L 673.11648,529.99854 M 747.67458,592.50772 C 753.06411,592.50772 751.73259,582.97692 751.54237,571.88212 C 751.41555,561.32492 752.17643,553.01602 748.05503,553.01602 C 742.34847,553.01602 745.07493,561.22722 745.01153,568.75412 C 746.27965,578.48032 743.67999,592.50772 747.67458,592.50772 M 760.36179,590.50382 C 762.26397,591.92122 780.39817,584.49212 780.5884,572.95732 C 780.71521,567.72762 778.17895,569.04732 774.24776,568.02092 C 779.89091,565.03942 784.58299,561.47152 783.82212,557.85472 C 782.36377,551.35414 765.05385,551.35414 758.77663,552.03848 C 758.77663,552.03848 757.82554,588.59762 760.36179,590.50382 M 765.49769,567.53222 C 765.75132,564.40402 765.24408,558.44122 765.81473,556.53502 C 767.71692,556.48622 776.5304,556.53502 777.16445,558.73442 C 778.17896,561.86262 773.55029,563.81762 765.49769,567.53222 M 765.30748,583.61232 C 765.37089,580.33762 765.05385,575.74322 765.30748,573.49502 C 767.33648,571.93102 773.04305,570.41582 773.74052,573.05522 C 774.88183,577.16062 770.697,581.95052 765.30748,583.61232 M 813.44672,563.62202 C 815.72934,571.44222 798.03899,572.61522 797.27811,575.59662 C 796.83427,577.30742 801.27271,581.80392 806.66225,584.83422 C 810.84706,587.18022 820.23119,590.06392 821.3091,586.64262 C 822.2602,583.61232 816.23659,583.80782 813.19309,581.95052 C 810.02279,579.99542 807.16949,579.80002 805.33071,576.76972 C 814.27099,573.59272 820.67503,571.29562 820.23119,562.88892 C 819.47031,547.93291 791.88858,550.0346 789.85958,552.62502 C 787.51355,555.60642 788.33783,563.57322 788.33783,570.51362 C 788.33783,578.77362 787.38674,591.33462 792.26903,591.33462 C 796.51723,591.33462 795.56615,578.72472 795.56615,570.56242 C 795.56615,565.23502 795.88318,562.20462 795.56615,556.87722 C 802.09699,554.53122 811.2275,555.99752 813.44672,563.62202 M 828.44627,586.74042 C 830.41187,588.45102 846.77068,585.51842 846.20003,582.63482 C 845.37575,578.48032 838.78149,580.63082 833.7724,580.92422 L 833.32855,570.41582 C 838.02061,570.02482 844.99531,570.70902 843.98081,566.75022 C 843.15653,563.57322 837.64018,565.03942 832.88471,564.79512 L 832.88471,553.55362 C 838.52786,552.82052 844.67828,552.67392 844.42465,549.79017 C 844.10763,545.92902 833.32855,548.22615 826.22705,548.86154 C 826.03683,554.28682 826.03683,561.52042 825.97342,568.50962 C 825.97342,576.81862 826.10024,584.68762 828.44627,586.74042 M 532.02663,597.33574 C 537.46905,598.31055 536.91087,593.94958 540.1205,587.17725 C 540.1205,587.17725 553.51724,587.17725 553.93589,587.17725 C 556.44779,594.00088 555.88958,599.18275 559.79697,598.87491 C 566.07669,598.41317 561.19247,585.02241 559.65743,578.3014 C 558.26193,572.19605 555.75004,556.18872 548.633,556.18872 C 542.63239,556.18872 538.86454,569.47686 536.14334,576.55701 C 533.28257,583.945 528.25879,596.66878 532.02663,597.33574 M 552.95905,582.0467 L 541.51599,582.0467 L 548.77256,562.75584 L 552.95905,582.0467"
         style="font-size:122.50061798px;font-style:normal;font-variant:normal;font-weight:normal;font-stretch:normal;text-align:start;line-height:125%;writing-mode:lr-tb;text-anchor:start;fill:#999999;fill-opacity:0.97752811;stroke:none;stroke-width:1px;stroke-linecap:butt;stroke-linejoin:miter;stroke-opacity:1;display:inline;font-family:Comics"
         id="text2265" />
      <path
         id="path3584"
         style="font-size:122.50061798px;font-style:normal;font-variant:normal;font-weight:normal;font-stretch:normal;text-align:start;line-height:125%;writing-mode:lr-tb;text-anchor:start;fill:#ee8e00;fill-opacity:0.97752811;stroke:none;stroke-width:1px;stroke-linecap:butt;stroke-linejoin:miter;stroke-opacity:1;display:inline;font-family:Comics"
         d="M 489.50016,602.5463 L 553.12783,518.18475 L 514.39794,512.9121 L 491.34445,562.123 L 489.50016,522.87148 L 447.08172,525.80068 L 459.06954,593.1728 L 489.50016,602.5463 M 568.92658,585.8931 C 582.84853,596.6916 596.98978,598.9198 616.50244,598.9198 C 640.50961,598.9198 664.84567,587.9499 664.84567,569.1811 C 664.84567,534.47147 615.18699,544.92718 615.18699,539.52792 C 615.18699,530.78623 633.60346,534.7286 644.12714,537.89959 L 644.12714,522.73015 C 632.61687,523.50152 577.5867,522.47311 580.6561,543.29884 C 582.73892,556.9256 627.90312,553.4975 627.90312,567.2956 C 627.90312,576.2087 595.67429,573.209 584.82174,562.7533 L 568.92658,585.8931 M 670.51005,528.04372 L 673.14097,598.4914 L 733.65222,596.4345 L 733.65222,575.3516 L 702.73887,576.3801 L 709.31618,525.47266 L 670.51005,528.04372 M 745.06815,590.5529 C 750.45768,590.5529 749.12616,581.0221 748.93594,569.9273 C 748.80912,559.3701 749.57,551.0612 745.4486,551.0612 C 739.74204,551.0612 742.4685,559.2724 742.4051,566.7993 C 743.67322,576.5255 741.07356,590.5529 745.06815,590.5529 M 757.75536,588.549 C 759.65754,589.9664 777.79174,582.5373 777.98197,571.0025 C 778.10878,565.7728 775.57252,567.0925 771.64133,566.0661 C 777.28448,563.0846 781.97656,559.5167 781.21569,555.8999 C 779.75734,549.39932 762.44742,549.39932 756.1702,550.08366 C 756.1702,550.08366 755.21911,586.6428 757.75536,588.549 M 762.89126,565.5774 C 763.14489,562.4492 762.63765,556.4864 763.2083,554.5802 C 765.11049,554.5314 773.92397,554.5802 774.55802,556.7796 C 775.57253,559.9078 770.94386,561.8628 762.89126,565.5774 M 762.70105,581.6575 C 762.76446,578.3828 762.44742,573.7884 762.70105,571.5402 C 764.73005,569.9762 770.43662,568.461 771.13409,571.1004 C 772.2754,575.2058 768.09057,579.9957 762.70105,581.6575 M 810.84029,561.6672 C 813.12291,569.4874 795.43256,570.6604 794.67168,573.6418 C 794.22784,575.3526 798.66628,579.8491 804.05582,582.8794 C 808.24063,585.2254 817.62476,588.1091 818.70267,584.6878 C 819.65377,581.6575 813.63016,581.853 810.58666,579.9957 C 807.41636,578.0406 804.56306,577.8452 802.72428,574.8149 C 811.66456,571.6379 818.0686,569.3408 817.62476,560.9341 C 816.86388,545.97809 789.28215,548.07978 787.25315,550.6702 C 784.90712,553.6516 785.7314,561.6184 785.7314,568.5588 C 785.7314,576.8188 784.78031,589.3798 789.6626,589.3798 C 793.9108,589.3798 792.95972,576.7699 792.95972,568.6076 C 792.95972,563.2802 793.27675,560.2498 792.95972,554.9224 C 799.49056,552.5764 808.62107,554.0427 810.84029,561.6672 M 825.83984,584.7856 C 827.80544,586.4962 844.16425,583.5636 843.5936,580.68 C 842.76932,576.5255 836.17506,578.676 831.16597,578.9694 L 830.72212,568.461 C 835.41418,568.07 842.38888,568.7542 841.37438,564.7954 C 840.5501,561.6184 835.03375,563.0846 830.27828,562.8403 L 830.27828,551.5988 C 835.92143,550.8657 842.07185,550.7191 841.81822,547.83535 C 841.5012,543.9742 830.72212,546.27133 823.62062,546.90672 C 823.4304,552.332 823.4304,559.5656 823.36699,566.5548 C 823.36699,574.8638 823.49381,582.7328 825.83984,584.7856 M 529.4202,595.38092 C 534.86262,596.35573 534.30444,591.99476 537.51407,585.22243 C 537.51407,585.22243 550.91081,585.22243 551.32946,585.22243 C 553.84136,592.04606 553.28315,597.22793 557.19054,596.92009 C 563.47026,596.45835 558.58604,583.06759 557.051,576.34658 C 555.6555,570.24123 553.14361,554.2339 546.02657,554.2339 C 540.02596,554.2339 536.25811,567.52204 533.53691,574.60219 C 530.67614,581.99018 525.65236,594.71396 529.4202,595.38092 M 550.35262,580.09188 L 538.90956,580.09188 L 546.16613,560.80102 L 550.35262,580.09188" />
      <path
         inkscape:export-ydpi="90.000000"
         inkscape:export-xdpi="90.000000"
         inkscape:export-filename="/home/julio/documentos/imagenes/logos/proto18.png"
         sodipodi:nodetypes="csssssssssssssssssssssss"
         id="path1387"
         d="M 552.29912,510.96282 C 549.65964,496.79278 564.75425,464.05592 575.66982,453.65324 C 579.40395,450.09457 562.39457,448.67615 566.07004,444.69977 C 567.90777,442.71158 578.74861,440.0839 589.27956,437.72738 C 599.81051,435.37087 594.98267,421.30212 598.089,419.56252 C 607.06792,414.53417 601.12464,401.84803 612.96322,403.9304 C 624.80181,406.01278 625.16049,381.89721 631.69441,376.86203 C 644.76224,366.79168 665.08033,357.57274 666.05039,354.7548 C 667.1294,351.62036 728.02465,347.74487 733.56308,359.72746 C 735.86656,364.71113 734.61678,373.43395 737.14183,375.1019 C 739.66687,376.76985 701.64551,435.17969 700.51024,437.94221 C 698.18093,443.61025 705.8255,467.02274 708.11566,468.88289 C 710.40581,470.74303 741.06223,486.02562 743.23282,487.97462 C 745.40341,489.92361 761.44803,491.91581 745.94058,507.04692 C 745.6823,507.29893 745.1239,508.12826 744.34164,509.39165 C 743.55938,510.65503 706.04573,523.22113 704.89202,525.20935 C 703.7383,527.19758 721.38746,547.03365 720.01482,549.46019 C 718.64218,551.88674 685.98567,527.4285 684.54664,530.00682 C 683.10761,532.58513 693.09953,545.75767 691.74663,548.20123 C 690.39373,550.64474 685.06832,568.76104 678.25388,567.23364 C 672.92197,566.03864 687.21161,554.06684 683.11988,542.86585 C 679.02814,531.66488 661.32982,523.44096 660.9683,524.09818 C 660.60678,524.75541 617.67269,517.01372 604.6878,514.65343 C 591.70291,512.29315 600.39076,511.7672 595.28479,511.0912"
         style="fill:#00d600;fill-opacity:1;stroke:none;stroke-width:3;stroke-miterlimit:4;stroke-opacity:1;display:inline" />
      <path
         sodipodi:nodetypes="csssccsssssssssssccssccssccssccssssssccssssssccsscccscscccsssssssssssssssssssssscccssscccscccsssssssssssssssssssssssssssssccsssssssssssssssssssssssssssssssssssssssssssssssssssssssssssssssccssssssssccsssssssssccssccssssssccssccsscccccsssssccssc"
         inkscape:export-ydpi="90.000000"
         inkscape:export-xdpi="90.000000"
         inkscape:export-filename="/home/julio/documentos/imagenes/logos/proto18.png"
         d="M 734.84116,487.21736 C 731.78676,487.48116 712.83095,494.19269 709.80873,493.35876 C 704.41611,491.87076 699.788,482.27405 701.52971,478.53245 C 705.32274,470.38405 712.66189,470.30218 720.35962,478.32242 C 723.65076,481.75144 731.46176,484.87553 736.38014,486.6788 M 667.83969,485.78377 C 670.65775,476.09876 673.39183,466.41375 673.91544,464.26153 C 674.43903,462.1093 675.75235,458.00051 676.8339,455.13088 C 679.61438,447.75355 661.71666,471.37336 655.58369,483.17502 C 652.78756,488.55558 649.48934,492.95786 648.25429,492.95786 C 644.81944,492.95786 645.55604,489.53394 650.46737,482.67061 C 652.9196,479.24372 653.51928,477.29089 651.79999,478.33097 C 650.0807,479.37103 648.67399,478.97067 648.67399,477.44128 C 648.67399,475.91187 658.30596,465.10515 670.07836,453.42632 C 691.45053,432.22403 692.23755,432.44163 680.96081,456.43526 C 677.92622,462.89193 675.41706,471.37923 675.38487,475.29594 C 675.31786,483.44698 667.75678,503.39289 664.7339,503.39289 C 663.62404,503.39289 665.02163,495.46879 667.83969,485.78377 z M 658.05175,488.52654 C 662.54782,477.99395 664.6654,474.97254 664.6654,479.08999 C 664.6654,484.51253 658.72917,498.17537 656.37321,498.17537 C 655.03105,498.17537 655.78638,493.83338 658.05175,488.52654 z M 656.66969,455.43514 C 656.66969,454.88508 659.07006,453.82063 662.00384,453.06967 C 664.93763,452.31871 666.66587,452.76878 665.84439,454.06979 C 664.40983,456.34178 656.66969,457.49365 656.66969,455.43514 z M 650.02547,448.63885 C 649.09174,447.16005 650.16156,446.72272 652.53341,447.61359 C 657.15071,449.34786 657.99551,451.21774 654.16176,451.21774 C 652.78239,451.21774 650.92105,450.05724 650.02547,448.63885 z M 646.00875,438.84973 C 642.46074,435.39385 642.66593,435.28353 647.83247,437.86923 C 659.90433,443.91079 673.91035,438.65775 668.51461,430.11227 C 667.69039,428.80693 668.28617,427.73893 669.83857,427.73893 C 671.39096,427.73893 672.6611,429.49984 672.6611,431.65206 C 672.6611,433.80429 674.1603,435.57138 675.99265,435.57895 C 677.825,435.58649 675.72613,437.81666 671.32849,440.53488 C 662.60837,445.92489 652.58791,445.25796 646.00875,438.84973 z M 702.94252,426.43455 C 703.78628,424.28232 703.24415,422.52141 701.73776,422.52141 C 700.23136,422.52141 699.81924,421.22215 700.82193,419.63414 C 702.1437,417.5408 703.16288,417.56704 704.52834,419.72957 C 705.66005,421.52194 708.34778,418.50977 711.26304,412.18181 C 713.93131,406.39006 717.17384,401.65135 718.46866,401.65135 C 721.09477,401.65135 717.60225,409.11415 709.01518,421.8514 C 702.89927,430.92323 700.46145,432.76308 702.94252,426.43455 z M 589.53908,428.56562 C 591.46303,427.812 593.7618,427.90469 594.64746,428.77155 C 595.53309,429.63841 593.95892,430.25499 591.14933,430.14172 C 588.04447,430.01655 587.41294,429.39838 589.53908,428.56562 z M 680.97836,567.55914 C 682.75522,566.93394 686.13448,562.24044 689.25419,557.29954 C 689.25419,557.29954 692.71894,552.55674 692.76664,548.03753 C 692.81433,543.51843 690.07201,539.36213 690.07201,539.36213 C 682.8851,527.43934 686.57879,527.86424 701.73484,540.70373 C 721.20708,557.19964 728.65393,554.31224 716.38764,535.02243 L 708.76179,523.03004 L 723.90496,518.83974 C 763.31763,507.93393 768.15818,489.50728 733.52585,482.2156 C 724.28846,480.27072 707.14905,461.97897 702.60253,449.21318 C 700.05257,442.05331 700.73255,439.8276 709.17413,427.70298 C 714.35286,420.26479 720.55004,409.48324 722.94561,403.74397 C 725.3412,398.00471 730.7948,389.22836 734.55379,383.9004 C 737.55759,379.64285 737.22626,376.69196 737.77083,374.17459 C 738.3154,371.65721 738.76048,369.43401 738.0221,365.65646 C 735.73792,353.97063 727.85412,350.44594 714.35854,350.34741 C 708.10867,350.30178 700.75086,348.89258 698.00786,347.21583 C 694.05529,344.79973 691.0154,345.09859 683.3557,348.65633 C 678.04002,351.12534 672.74918,352.57576 671.59823,351.87953 C 670.4473,351.18328 663.07283,354.05688 655.21052,358.2653 C 647.34821,362.47375 638.70832,365.91699 636.01075,365.91699 C 633.31319,365.91699 631.10611,366.87182 631.10611,368.03883 C 631.10611,369.20585 626.90836,371.77284 621.77778,373.74326 C 612.03544,377.48485 610.14781,380.22569 615.781,382.45057 C 617.61335,383.17426 615.94262,383.85906 612.0683,383.97233 C 605.15745,384.17441 600.31192,390.16424 603.26978,394.84874 C 604.094,396.15408 602.89853,397.22208 600.6132,397.22208 C 598.32787,397.22208 596.45805,398.88516 596.45805,400.91783 C 596.45805,402.95047 594.95885,405.20569 593.1265,405.92938 C 591.29415,406.65308 592.19367,407.39083 595.12543,407.56883 C 599.38738,407.82756 598.85313,408.61079 592.46019,411.47604 L 584.46449,415.05961 L 592.46019,415.47198 C 600.19263,415.87078 600.10486,415.9918 589.79496,419.14728 C 583.93144,420.94187 579.4095,423.71495 579.7462,425.30968 C 580.08287,426.90441 577.68416,429.12483 574.41572,430.24394 C 569.27241,432.00498 569.90705,432.50291 579.13402,433.94584 L 589.79496,435.61305 L 578.79404,435.98326 C 567.55144,436.36158 555.80425,444.07019 566.14782,444.28182 C 569.26788,444.34565 567.64206,445.88795 561.80999,448.39682 L 552.48166,452.40971 L 560.47737,456.0951 C 564.87501,458.12208 566.07436,459.23198 563.14261,458.56155 C 557.29921,457.22532 548.91912,461.12792 551.72804,463.87731 C 552.69454,464.82333 550.2611,468.57375 546.32039,472.21161 C 541.58056,476.5872 540.28813,479.21868 542.5019,479.98636 C 544.75893,480.76904 543.89132,482.74465 539.83667,486.05527 C 534.08602,490.75064 534.05644,490.96808 539.15549,491.06351 C 543.79337,491.15031 543.44708,491.99677 536.49025,497.57836 C 532.09261,501.10668 529.57994,504.03571 530.90656,504.08731 C 532.23315,504.13892 531.0338,506.72806 528.24132,509.84101 C 523.44486,515.18784 523.43406,515.40424 528.04623,513.75414 C 530.7314,512.79344 537.65054,512.00744 543.4221,512.00744 C 553.22801,512.00744 553.80839,511.58834 552.27663,505.61469 C 550.40547,498.31737 560.58944,474.44195 571.60046,460.31166 C 577.26611,453.04101 577.84812,450.9762 574.8259,448.8683 C 571.87498,446.81009 572.00147,446.5639 575.459,447.63587 C 578.1773,448.47865 583.86079,444.90523 590.78411,438.00037 C 602.64707,426.16903 603.57908,424.29485 598.45697,422.57098 C 596.62462,421.9543 597.14115,421.73701 599.60481,422.08815 C 602.06847,422.43929 606.83447,419.86111 610.1959,416.35883 C 615.39302,410.94396 615.71981,409.60496 612.3796,407.41092 C 609.21186,405.33018 609.48329,404.97807 613.78208,405.59176 C 616.71383,406.0103 619.9937,407.52667 621.07067,408.96149 C 622.14764,410.3963 623.07349,408.63539 623.12812,405.04835 C 623.30048,393.73339 632.80138,376.97698 641.55761,372.54491 C 646.07044,370.26068 649.76275,367.4739 649.76275,366.35206 C 649.76275,364.30465 668.21431,355.48196 672.49617,355.48196 C 673.75326,355.48196 666.15163,361.4334 655.60367,368.70737 C 638.32268,380.62446 631.10611,387.96493 631.10611,393.62552 C 631.10611,394.7057 634.40433,392.61501 638.4355,388.97958 C 652.68718,376.12696 658.21621,381.76287 665.71107,377.13465 L 684.41369,365.58539 C 688.87297,362.83169 688.49952,353.72225 690.16487,352.44555 C 691.83019,351.16883 700.13421,353.5987 707.76302,353.39292 C 717.50984,353.12999 727.50343,356.38392 730.5919,358.59442 C 732.9879,360.30929 733.96233,363.03557 733.11729,365.99737 C 732.27225,368.95914 730.41501,373.05267 725.77638,376.09842 C 721.33011,379.01786 710.87251,384.64286 701.82199,389.36871 C 697.29673,391.73163 693.33874,394.91523 690.22883,395.33253 C 682.99912,396.30265 680.57081,393.41179 678.72336,395.27351 C 677.59791,396.40766 686.83338,399.90157 693.98203,396.55065 C 697.13865,395.07099 701.04026,392.74505 705.11956,390.3758 C 713.27817,385.63731 721.95685,380.33466 725.47289,378.54612 C 732.50498,374.96902 732.2794,371.05411 733.43102,372.18132 C 735.73426,374.43576 732.40842,379.93278 721.58181,391.2787 C 705.07822,408.5739 702.78758,410.4045 699.86318,408.63539 C 698.69378,407.92798 697.71681,408.88589 697.69213,410.76409 C 697.66748,412.64229 692.87005,418.78761 687.03119,424.42033 C 673.95627,437.03375 672.87477,433.28807 685.73759,419.94002 C 690.86497,414.61923 693.93415,410.26587 692.55798,410.26587 C 691.18181,410.26587 689.1879,411.64052 688.12703,413.32064 C 686.86451,415.3202 685.28893,414.19377 683.56593,410.0597 C 681.38444,404.82556 680.74148,404.52582 679.81157,408.3093 C 678.43711,413.90148 677.86473,413.9246 669.74365,408.71624 C 666.17748,406.42911 661.72212,405.16248 659.84278,405.90152 C 657.66278,406.75878 658.08031,407.31974 660.99624,407.45115 C 666.39678,407.69452 672.13037,416.93419 669.4828,421.12724 C 668.33238,422.94925 666.19942,421.37367 663.83381,416.95443 C 661.37516,412.36132 658.61352,410.38756 656.0126,411.36447 C 653.80128,412.19507 650.65547,412.87462 649.02195,412.87462 C 647.3884,412.87462 650.04385,416.90604 654.92297,421.83333 C 660.46964,427.43478 663.19389,432.32288 662.19253,434.87712 C 659.90011,440.72446 653.09747,439.91906 651.0342,433.55602 C 649.98026,430.30571 647.78294,428.71257 645.52412,429.56099 C 640.4041,431.48411 640.63211,422.59 645.96143,412.50264 C 650.91517,403.12614 649.10487,399.8528 642.29943,405.88114 C 638.10459,409.59698 636.76837,409.68017 632.14904,406.51325 C 627.11382,403.06118 626.84256,403.37856 627.07507,412.45005 C 627.2102,417.72115 628.35774,423.67623 629.62522,425.68359 C 631.32617,428.37745 630.94934,428.78048 628.18637,427.2224 C 626.12753,426.06137 627.59836,428.52135 631.45488,432.68902 C 635.31142,436.85667 638.11525,442.32655 637.68564,444.84432 C 637.256,447.36208 638.01815,448.7484 639.37926,447.925 C 640.74037,447.10162 641.04946,445.15374 640.06609,443.59637 C 638.99011,441.89227 639.52073,441.51646 641.39871,442.65252 C 643.11499,443.69075 643.85345,445.59465 643.03972,446.8834 C 642.226,448.17215 644.00547,450.7213 646.99411,452.54819 C 653.31231,456.41035 654.30599,460.37388 648.39991,458.15553 C 645.40632,457.03113 644.83814,457.83204 646.18761,461.27411 C 647.50146,464.62545 647.06255,465.33652 644.59969,463.84666 C 642.06337,462.31235 641.66734,463.2413 643.04564,467.4919 C 645.42268,474.82259 634.57566,491.02375 627.10825,491.29608 C 622.5237,491.46325 622.71019,491.87504 628.44087,494.23879 C 632.10557,495.75038 643.1667,500.34766 653.02116,504.45499 C 662.8756,508.5623 675.7436,512.67494 681.61669,513.59424 C 687.48977,514.51344 694.41898,516.97624 697.01495,519.06694 C 701.53095,522.70414 701.53084,522.80544 697.01215,521.41094 C 694.41467,520.60934 699.21209,526.34034 707.67309,534.14663 C 717.91117,543.59243 721.53109,548.37143 718.49555,548.43483 C 715.98692,548.48713 709.18465,543.83423 703.37945,538.09493 C 697.57425,532.35574 690.33176,527.65994 687.28505,527.65994 C 680.45088,527.65994 680.41365,528.84784 686.92442,539.15923 C 692.07478,547.31593 692.07283,547.40813 686.56859,555.91724 C 683.29464,560.97854 681.05521,565.50524 678.78533,565.12594 C 677.61825,564.93094 674.5212,562.77044 674.27736,564.14514 C 673.71209,567.33214 677.07403,568.93304 680.97836,567.55914 z M 679.76791,561.96984 C 682.33331,559.45884 686.58582,550.67374 685.90911,547.64223 C 685.2324,544.61073 685.6291,542.22243 682.26152,538.85293 C 679.84506,536.43513 675.69781,529.91124 669.88089,526.57174 C 664.06396,523.23234 656.57735,523.07734 656.40004,523.36474 C 656.22272,523.65204 663.07602,525.21784 668.52118,529.08204 C 673.96634,532.94634 678.00335,539.10903 679.99664,540.78723 C 687.96979,547.50013 681.15486,554.91394 677.44283,559.29194 C 675.58682,561.48084 673.26661,564.33894 674.72425,565.02204 C 675.47623,565.37444 677.47617,564.21304 679.76791,561.96984 z M 661.33482,523.58664 C 660.71992,522.98484 647.79619,520.13054 635.34032,517.75484 C 601.32057,511.26624 595.36928,509.05018 595.36928,502.87113 C 595.36928,501.72048 604.22371,476.00072 613.08787,463.7552 C 622.6766,450.50873 623.19005,448.03229 622.00276,447.82522 C 620.19863,447.51056 610.9203,462.72214 603.4987,475.86475 C 596.0771,489.00737 592.01212,500.26366 591.08886,501.01367 C 587.22939,504.14888 587.50609,505.07819 593.90274,510.46374 C 598.13358,514.02584 604.47612,516.43664 609.61675,516.43664 C 614.35759,516.43664 625.14342,518.19754 633.58526,520.34984 C 648.14816,524.06264 663.75805,525.95854 661.33482,523.58664 z M 595.24632,467.62622 C 595.36204,464.87622 594.73214,463.33542 593.84649,464.20222 C 592.96085,465.06912 592.86618,467.31922 593.63609,469.20242 C 594.48689,471.28352 595.11844,470.66532 595.24632,467.62622 z M 622.65719,474.00853 C 623.56315,472.57373 623.5579,470.21752 622.64554,468.77258 C 621.73318,467.32761 622.86177,465.44112 625.1535,464.58033 C 627.44523,463.71955 629.32027,461.17533 629.32027,458.9265 C 629.32027,455.78282 627.7435,456.28764 622.49869,461.11045 C 618.74683,464.56048 616.88042,467.7758 618.35113,468.25565 C 619.82183,468.73548 620.3645,470.81315 619.55706,472.87263 C 617.88852,477.12873 620.16125,477.96143 622.65719,474.00853 z M 590.80094,457.02838 C 590.91666,454.27828 590.28676,452.73748 589.4011,453.60438 C 588.51547,454.47118 588.4208,456.72128 589.19071,458.60448 C 590.0415,460.68558 590.67306,460.06748 590.80094,457.02838 z M 739.11136,488.78928 C 754.12557,490.01091 755.77135,497.07497 747.0374,503.72767 C 740.95048,508.36413 710.13964,519.48634 707.30916,518.06884 C 706.57622,517.70184 702.06571,515.89124 697.28583,514.04534 L 688.59511,510.68914 L 701.01899,502.53595 C 713.51579,492.97446 731.12044,490.21109 733.22727,489.32785 M 705.93727,494.68882 C 703.10718,493.93299 689.29612,477.18581 683.64091,476.13651 C 681.05892,475.65743 675.97862,496.58875 674.4528,498.15598 C 672.76986,499.8846 672.01589,501.37789 671.82836,501.57051 C 669.6587,503.79906 679.06118,506.24954 682.03794,507.01392 C 684.58222,507.66726 688.13563,504.96886 689.34948,504.51131 C 690.91304,503.92193 703.78271,497.98417 705.93727,494.68882 z M 616.12675,425.24696 C 616.24247,422.49686 615.61257,420.95606 614.72691,421.82296 C 613.84128,422.68976 613.74661,424.93986 614.51652,426.82306 C 615.36731,428.90416 615.99887,428.28606 616.12675,425.24696 z"
         style="fill:#000000;fill-opacity:1;stroke:none;stroke-opacity:1;display:inline"
         id="path20902" />
      <path
         inkscape:export-ydpi="90.000000"
         inkscape:export-xdpi="90.000000"
         inkscape:export-filename="/home/julio/documentos/imagenes/logos/proto18.png"
         sodipodi:nodetypes="cscsssssc"
         id="path2108"
         d="M 720.51361,549.16448 C 727.07862,564.35134 688.94463,531.95547 690.38687,535.23478 C 691.82911,538.51409 696.19462,547.90973 694.94386,552.87959 C 692.44566,557.89589 685.35985,569.21591 682.7216,567.05445 C 681.73588,566.24687 693.55044,546.47397 692.50538,544.55076 C 691.54193,542.77774 688.02603,540.67558 689.58915,540.28184 C 689.82802,540.22167 681.24235,529.06719 686.19911,529.32011 C 687.4383,529.38334 690.2875,529.21118 693.31957,531.01805 C 696.35165,532.82492 699.47249,542.5508 720.51361,549.16448 z"
         style="fill:#000000;fill-opacity:0.36516855;fill-rule:evenodd;stroke:none;stroke-width:1px;stroke-linecap:butt;stroke-linejoin:miter;stroke-opacity:1" />
    </g>
  </g>
  <g
     inkscape:groupmode="layer"
     id="layer2"
     inkscape:label="Capa 2"
     style="display:inline" />
</svg>
